<svg xmlns="http://www.w3.org/2000/svg" viewBox="0 0 237.62 81.34"><defs><style>.cls-1,.cls-3{fill:none;stroke:#fff;stroke-miterlimit:10;}.cls-1{stroke-width:2.06px;}.cls-2{fill:#fff;}.cls-3{stroke-width:1.49px;}</style></defs><g id="Layer_2" data-name="Layer 2"><g id="Layer_1-2" data-name="Layer 1"><path class="cls-1" d="M62.76,11.15V1h-12V11.15H46.2v9.92h4.55V49.18H62.68v-28h4.75v-10Z"/><polygon class="cls-2" points="50.75 23.52 67.43 17.12 67.43 21.15 62.68 21.15 62.68 30.18 50.75 34.77 50.75 23.52"/><polygon class="cls-2" points="50.75 47.32 62.68 42.76 62.68 49.17 50.75 49.17 50.75 47.32"/><path class="cls-3" d="M16,52.05V55.5h-.11a13.37,13.37,0,0,0-3-3.32A5.46,5.46,0,0,0,11,51.34a6.69,6.69,0,0,0-1.66-.19,6.79,6.79,0,0,0-5.61,3c-.22.3-.43.62-.64,1A18.55,18.55,0,0,0,.82,63.42c0,.72-.07,1.45-.07,2.23a27.82,27.82,0,0,0,.7,6.65,15,15,0,0,0,1.63,4.28,9.42,9.42,0,0,0,2.05,2.49A6.34,6.34,0,0,0,9.36,80.6a5.75,5.75,0,0,0,3.5-1.11A15.23,15.23,0,0,0,15.94,76h.11v3.63h8.67V52.05Zm.06,13.66c0,.36,0,.67,0,1h0c-.15,4.1-1.23,6.13-3.23,6.13q-2.51,0-3.23-3.66a18.48,18.48,0,0,1-.28-3.48c0-3.07.51-5.1,1.52-6.12a2.52,2.52,0,0,1,1.87-.76h.09Q16.05,58.92,16.05,65.71Z"/><path class="cls-2" d="M24.72,52.05v2.22L12.78,58.83h-.09a2.52,2.52,0,0,0-1.87.76l-10,3.83a18.55,18.55,0,0,1,2.29-8.34c.21-.34.42-.66.64-1L11,51.34a5.46,5.46,0,0,1,1.85.84,13.37,13.37,0,0,1,3,3.32H16V52.05Z"/><path class="cls-2" d="M24.72,63.39v8.18L5.13,79.07a9.42,9.42,0,0,1-2-2.49A15,15,0,0,1,1.45,72.3l8.13-3.11q.72,3.66,3.23,3.66c2,0,3.08-2,3.23-6.13h0Z"/><path class="cls-2" d="M79.12,21.79v4.7h.12Q82.42,21,85.93,21a8.24,8.24,0,0,1,1.44.19v8.7a18.33,18.33,0,0,0-3-.27c-3.26,0-4.88,2.1-4.88,6.32v14H70.63V21.79Z"/><path class="cls-2" d="M106.15,49.89v-3.7H106a14.27,14.27,0,0,1-3.13,3.51,5.7,5.7,0,0,1-3.55,1.13q-4,0-6.39-4.09T90.57,35.62q0-6.75,2.41-10.75c1.61-2.66,3.73-4,6.36-4a5.92,5.92,0,0,1,3.57,1.06,13.22,13.22,0,0,1,3,3.37h.13V21.79H115v28.1Zm0-14.21q0-7-3.42-7t-3.45,7q0,7.27,3.57,7.27Q106.15,43,106.15,35.68Z"/><path class="cls-2" d="M119.07,21.79h8.67L131.25,37h.12l3.51-15.21h8.8L135,49.89h-7.21Z"/><path class="cls-2" d="M159.77,41.3h7.49q-2.14,9.47-10.69,9.47a10.07,10.07,0,0,1-8.46-4.06Q145,42.65,145,35.5q0-6.66,3.12-10.67a9.93,9.93,0,0,1,8.27-4,10.56,10.56,0,0,1,6,1.94,11.17,11.17,0,0,1,4.18,5.15Q167.87,31.1,168,38H153.21q.18,6.26,3.48,6.26a2.9,2.9,0,0,0,2-.83A3.45,3.45,0,0,0,159.77,41.3Zm-6.44-8.12h6.44A10.67,10.67,0,0,0,159,28.8a2.43,2.43,0,0,0-2.32-1.42,2.69,2.69,0,0,0-2.54,1.37A9.72,9.72,0,0,0,153.33,33.18Z"/><path class="cls-2" d="M173.46,6.85h8.88v43h-8.88Z"/><path class="cls-2" d="M31.72,70.84c3,1.79,5.22,2.68,6.57,2.68A3,3,0,0,0,40.12,73a1.67,1.67,0,0,0,.73-1.36,1.37,1.37,0,0,0-.61-1.25q-.6-.41-4.58-2.14a11.17,11.17,0,0,1-4.58-3.31,7.79,7.79,0,0,1-1.4-4.75,8.78,8.78,0,0,1,2.79-6.69,10,10,0,0,1,7.13-2.63q4.21,0,10.32,3.36L46.5,60.51q-4-2.44-6.5-2.44c-1.47,0-2.2.59-2.2,1.77a1.84,1.84,0,0,0,.81,1.48,11.51,11.51,0,0,0,3,1.39,14.46,14.46,0,0,1,5.81,3.36,6.94,6.94,0,0,1,1.82,5,9.3,9.3,0,0,1-2.87,7A10.18,10.18,0,0,1,39,80.79,19.83,19.83,0,0,1,28.67,77.4Z"/><path class="cls-2" d="M55.67,70.84q4.55,2.68,6.56,2.68A3,3,0,0,0,64.06,73a1.68,1.68,0,0,0,.74-1.36,1.39,1.39,0,0,0-.61-1.25q-.61-.41-4.59-2.14A11.24,11.24,0,0,1,55,64.9a7.86,7.86,0,0,1-1.4-4.75,8.78,8.78,0,0,1,2.79-6.69,10,10,0,0,1,7.13-2.63q4.21,0,10.33,3.36l-3.42,6.32q-4-2.44-6.51-2.44c-1.46,0-2.2.59-2.2,1.77a1.84,1.84,0,0,0,.81,1.48,11.51,11.51,0,0,0,3,1.39,14.44,14.44,0,0,1,5.82,3.36,7,7,0,0,1,1.81,5,9.26,9.26,0,0,1-2.87,7,10.16,10.16,0,0,1-7.33,2.75A19.89,19.89,0,0,1,52.61,77.4Z"/><path class="cls-2" d="M78.57,54.26a3,3,0,0,1,1.37-2.43,6,6,0,0,1,6.63,0,2.81,2.81,0,0,1,0,4.84,5.91,5.91,0,0,1-6.61,0A2.94,2.94,0,0,1,78.57,54.26Zm.24,6.13H87.7V80.85H78.81Z"/><path class="cls-2" d="M95.73,70.84q4.56,2.68,6.57,2.68a3,3,0,0,0,1.83-.56,1.67,1.67,0,0,0,.73-1.36,1.37,1.37,0,0,0-.61-1.25q-.6-.41-4.58-2.14a11.24,11.24,0,0,1-4.58-3.31,7.86,7.86,0,0,1-1.4-4.75,8.78,8.78,0,0,1,2.79-6.69,10,10,0,0,1,7.13-2.63q4.22,0,10.32,3.36l-3.42,6.32q-4-2.44-6.5-2.44c-1.47,0-2.2.59-2.2,1.77a1.84,1.84,0,0,0,.81,1.48,11.51,11.51,0,0,0,2.95,1.39,14.46,14.46,0,0,1,5.81,3.36,6.94,6.94,0,0,1,1.82,5,9.3,9.3,0,0,1-2.87,7A10.18,10.18,0,0,1,103,80.79,19.83,19.83,0,0,1,92.68,77.4Z"/><path class="cls-2" d="M119.74,50.89h8.88v6.3h3.46v6.23h-3.52V80.85h-8.82V63.37h-3.36V57.19h3.36Z"/><path class="cls-2" d="M150.58,79.91v-3.7h-.12a14.48,14.48,0,0,1-3.13,3.51,5.73,5.73,0,0,1-3.56,1.13c-2.67,0-4.79-1.36-6.38-4.09S135,70.33,135,65.64q0-6.75,2.41-10.75c1.61-2.66,3.73-4,6.35-4A5.88,5.88,0,0,1,147.34,52a13.41,13.41,0,0,1,3.06,3.37h.12V51.81h8.89v28.1Zm0-14.21q0-7-3.42-7t-3.45,7q0,7.27,3.57,7.27Q150.58,73,150.58,65.7Z"/><path class="cls-2" d="M175,51.81v3.82h.16q3.11-4.74,7.6-4.74a5.88,5.88,0,0,1,4.66,2,7.68,7.68,0,0,1,1.72,5.28V79.91H180.3V62.59a3.92,3.92,0,0,0-.67-2.35,2.08,2.08,0,0,0-1.75-.92q-2.83,0-2.84,3.57v17h-8.85V51.81Z"/><path class="cls-2" d="M211,71.32v7.33a11.34,11.34,0,0,1-6.38,2.14A8.81,8.81,0,0,1,197,76.68q-2.87-4.09-2.86-11,0-6.55,2.93-10.69a9,9,0,0,1,7.58-4.12A10.8,10.8,0,0,1,211,53.12v7.27a7.12,7.12,0,0,0-3.24-1,4.15,4.15,0,0,0-3.45,1.73,7.43,7.43,0,0,0-1.31,4.6,7.91,7.91,0,0,0,1.28,4.76,4.11,4.11,0,0,0,3.48,1.74A7.18,7.18,0,0,0,211,71.32Z"/><path class="cls-2" d="M229.37,71.32h7.49q-2.15,9.48-10.69,9.47a10.07,10.07,0,0,1-8.46-4.06q-3.12-4.07-3.12-11.21,0-6.66,3.12-10.67a9.93,9.93,0,0,1,8.27-4,10.56,10.56,0,0,1,6,1.94,11.17,11.17,0,0,1,4.18,5.15q1.32,3.19,1.47,10.11H222.81q.18,6.25,3.48,6.26a2.91,2.91,0,0,0,2-.83A3.45,3.45,0,0,0,229.37,71.32Zm-6.44-8.12h6.44a10.67,10.67,0,0,0-.82-4.38,2.43,2.43,0,0,0-2.32-1.42,2.69,2.69,0,0,0-2.54,1.37A9.59,9.59,0,0,0,222.93,63.2Z"/></g></g></svg>