<svg xmlns="http://www.w3.org/2000/svg" viewBox="0 0 58.47 58.47"><defs><style>.cls-1{fill:none;stroke:#fff;stroke-miterlimit:10;stroke-width:2.14px;}.cls-2{fill:#fff;}</style></defs><g id="Layer_2" data-name="Layer 2"><g id="Layer_1-2" data-name="Layer 1"><path class="cls-1" d="M16.38,12.91V1.07H5.27V12.91H1.07V24.52h4.2V57.4h11V24.61h4.39V12.91Z"/><path class="cls-1" d="M46.3,11.42V17h-.16a20.59,20.59,0,0,0-3.82-5.34A6.08,6.08,0,0,0,40,10.29,6.49,6.49,0,0,0,37.85,10c-2.87,0-5.23,1.61-7.13,4.79-.28.48-.55,1-.82,1.54A36.09,36.09,0,0,0,27,29.74c0,1.16-.09,2.34-.09,3.59A56.2,56.2,0,0,0,27.79,44a28.52,28.52,0,0,0,2.08,6.89,15.09,15.09,0,0,0,2.6,4,7.19,7.19,0,0,0,5.38,2.45,6.28,6.28,0,0,0,4.45-1.78,22.62,22.62,0,0,0,3.92-5.56h.15v5.85h11V11.42Zm.07,22c0,.58,0,1.09,0,1.62v0c-.19,6.6-1.56,9.87-4.1,9.87q-3.2,0-4.11-5.9a36.33,36.33,0,0,1-.36-5.61c0-4.93.64-8.2,1.94-9.84a2.84,2.84,0,0,1,2.37-1.23h.12C45,22.45,46.37,26.13,46.37,33.42Z"/><polygon class="cls-2" points="5.27 27.38 20.69 19.89 20.69 24.61 16.3 24.61 16.3 35.18 5.27 40.55 5.27 27.38"/><path class="cls-2" d="M57.4,11.42V15L42.21,22.35h-.12a2.84,2.84,0,0,0-2.37,1.23L27,29.74A36.09,36.09,0,0,1,29.9,16.31c.27-.56.54-1.06.82-1.54L40,10.29a6.08,6.08,0,0,1,2.36,1.35A20.59,20.59,0,0,1,46.14,17h.16V11.42Z"/><path class="cls-2" d="M57.4,29.69V42.86L32.47,55a15.09,15.09,0,0,1-2.6-4A28.52,28.52,0,0,1,27.79,44l10.35-5q.91,5.89,4.11,5.9c2.54,0,3.91-3.27,4.1-9.87v0Z"/></g></g></svg>